<?xml version="1.0" encoding="UTF-8"?>
<svg version="1.1" xmlns="http://www.w3.org/2000/svg" width="1891" height="1891">
<path d="M0 0 C9.30568903 86.35869059 7.74536671 172.51210319 -77 475 C-77.72074707 476.44753662 -77.72074707 476.44753662 -78.45605469 477.92431641 C-88.8936166 498.73937302 -100.68999959 518.88544591 -114 538 C-114.4753418 538.68497559 -114.95068359 539.36995117 -115.44042969 540.07568359 C-127.23737745 557.03616372 -139.57553031 573.59571122 -153.00634766 589.30297852 C-155.98041489 592.78126059 -158.88013162 596.30955335 -161.75 599.875 C-164.73349737 603.5433215 -167.81238543 606.94694015 -171.22105408 610.22010803 C-172.98377019 611.98376156 -174.60204863 613.81290466 -176.22094727 615.70874023 C-179.92747372 619.97204183 -183.84050119 623.98517566 -187.83984375 627.97265625 C-188.56563126 628.69940048 -189.29141876 629.42614471 -190.03919983 630.1749115 C-191.56323556 631.69962296 -193.08851569 633.2230915 -194.61499023 634.74536133 C-196.93132463 637.05633891 -199.24227078 639.37260771 -201.55273438 641.68945312 C-203.04395034 643.1800082 -204.53547653 644.670253 -206.02734375 646.16015625 C-206.70780258 646.84263931 -207.38826141 647.52512238 -208.08934021 648.22828674 C-212.02019382 652.14029542 -216.05366469 655.87645741 -220.2567749 659.49488831 C-222.65820975 661.56830251 -224.98218883 663.72227086 -227.3125 665.875 C-232.19336809 670.32186477 -237.22375524 674.52428901 -242.36279297 678.66748047 C-244.22388068 680.18221604 -246.06757206 681.71671785 -247.91015625 683.25390625 C-256.75256801 690.62070404 -265.7259137 697.73426618 -275.00927734 704.53759766 C-276.92659475 705.94607586 -278.83283635 707.3684906 -280.73828125 708.79296875 C-350.764633 760.68149065 -429.37577542 801.27341605 -904 894 C-905.29819672 893.9870993 -905.29819672 893.9870993 -906.62261963 893.97393799 C-960.8588098 893.4004642 -1015.34906852 890.92325308 -1069.125 883.5625 C-1069.86293793 883.46210419 -1070.60087585 883.36170837 -1071.36117554 883.25827026 C-1078.86192159 882.22285511 -1086.24165679 881.01212099 -1093.62109375 879.2890625 C-1104.57090805 876.2438658 -1104.57090805 876.2438658 -1115.578125 877.08203125 C-1118.50452893 879.13469458 -1120.62758529 881.33152688 -1123 884 C-1124.50916949 885.31858494 -1126.05905356 886.57223455 -1127.62297058 887.82513428 C-1140.71555236 898.47288414 -1152.64825702 910.48514786 -1164.54980469 922.41943359 C-1166.88883481 924.76386677 -1169.23322197 927.10284871 -1171.578125 929.44140625 C-1173.09146687 930.95540834 -1174.60449881 932.4697203 -1176.1171875 933.984375 C-1176.80585907 934.67102234 -1177.49453064 935.35766968 -1178.20407104 936.06512451 C-1182.12623229 940.00606815 -1185.86929847 944.04879055 -1189.48953247 948.26934814 C-1191.54935382 950.62943439 -1193.7563545 952.8153978 -1196 955 C-1198.95183025 957.91626603 -1201.80388859 960.84605835 -1204.5 964 C-1207.9809341 968.07203611 -1211.77292135 971.78777253 -1215.58203125 975.55078125 C-1218.30649918 978.3104604 -1220.83547376 981.19180657 -1223.35546875 984.13671875 C-1225.00398752 986.00451793 -1226.72303581 987.75455624 -1228.5 989.5 C-1232.2118719 993.16270803 -1235.61011518 997.03979429 -1239 1001 C-1239.90739364 1002.05482382 -1240.81495908 1003.10949986 -1241.72265625 1004.1640625 C-1244.3071683 1007.16964436 -1246.88393362 1010.18176572 -1249.45800781 1013.19628906 C-1250.92480572 1014.91204316 -1252.39574033 1016.62417093 -1253.8671875 1018.3359375 C-1259.63344385 1025.06679035 -1265.14755308 1031.95312855 -1270.49511719 1039.02246094 C-1272.22674352 1041.29795952 -1273.97628338 1043.55913157 -1275.7265625 1045.8203125 C-1283.90520815 1056.41657017 -1291.75270737 1067.15602836 -1299.18652344 1078.28710938 C-1300.85608808 1080.78471335 -1302.53399706 1083.27654147 -1304.21435547 1085.76689148 C-1326.39621887 1118.65782566 -1346.23191103 1152.57920137 -1364.01300049 1188.0324707 C-1364.95686736 1189.91401744 -1365.90384728 1191.79397138 -1366.85107422 1193.67382812 C-1381.99227801 1223.86434426 -1394.9301411 1255.09793364 -1406 1287 C-1406.2384967 1287.68368652 -1406.47699341 1288.36737305 -1406.72271729 1289.07177734 C-1424.92890521 1341.28304698 -1438.11417938 1394.78234842 -1445.75 1449.5625 C-1445.84509857 1450.22520905 -1445.94019714 1450.88791809 -1446.03817749 1451.57070923 C-1446.81285527 1457.03510213 -1447.41800751 1462.51210825 -1448 1468 C-1448.12800995 1469.1435495 -1448.2560199 1470.287099 -1448.38790894 1471.46530151 C-1451.60710684 1501.10602671 -1451.29410046 1530.71235026 -1451.0894165 1560.49224854 C-1451.00967031 1572.18094317 -1450.9473507 1583.86968452 -1450.91015625 1595.55859375 C-1450.9062022 1596.79386307 -1450.90224815 1598.02913239 -1450.89817429 1599.30183411 C-1450.75958435 1658.14705969 -1457.82673089 1711.2285077 -1500 1755 C-1500.95036133 1755.9912085 -1500.95036133 1755.9912085 -1501.91992188 1757.00244141 C-1510.5334184 1765.93986082 -1519.24888114 1774.35140101 -1529.25537109 1781.71289062 C-1531.07630801 1783.05629664 -1532.87640701 1784.4247516 -1534.67578125 1785.796875 C-1543.10579858 1792.17100483 -1551.80832593 1797.79333126 -1561 1803 C-1561.62503418 1803.36303223 -1562.25006836 1803.72606445 -1562.89404297 1804.10009766 C-1595.75130038 1823.09713988 -1635.31075509 1833.16078718 -1673 1836 C-1674.52728226 1836.12014717 -1674.52728226 1836.12014717 -1676.0854187 1836.24272156 C-1688.56270094 1837.12703037 -1701.02675401 1837.22252935 -1713.53125 1837.31640625 C-1715.86251147 1837.33702434 -1718.1937696 1837.3580219 -1720.52502441 1837.37937927 C-1726.60753655 1837.43409941 -1732.69007956 1837.48372558 -1738.77264404 1837.53222656 C-1745.00080046 1837.5828114 -1751.22891304 1837.63830275 -1757.45703125 1837.69335938 C-1769.63798323 1837.80032693 -1781.81897357 1837.9019035 -1794 1838 C-1794.05674394 1818.62791729 -1794.05674394 1818.62791729 -1793.703125 1809.3515625 C-1793.66985107 1808.43165024 -1793.63657715 1807.51173798 -1793.60229492 1806.56394958 C-1793.49104162 1803.5840193 -1793.37210962 1800.60450457 -1793.25 1797.625 C-1793.20709839 1796.57698212 -1793.16419678 1795.52896423 -1793.11999512 1794.44918823 C-1789.25256838 1702.26082906 -1776.44425361 1610.52048906 -1676 1331 C-1675.49758789 1329.9373291 -1674.99517578 1328.8746582 -1674.47753906 1327.77978516 C-1671.02656721 1320.49951435 -1667.52975636 1313.24237825 -1664 1306 C-1663.47937988 1304.93007812 -1662.95875977 1303.86015625 -1662.42236328 1302.7578125 C-1655.25299331 1288.07466378 -1647.63385263 1273.74742754 -1639.47851562 1259.58984375 C-1637.69764197 1256.47037419 -1635.97099278 1253.3235312 -1634.24975586 1250.17089844 C-1627.89100464 1238.54391594 -1620.98864861 1227.25683231 -1614 1216 C-1613.18088135 1214.67838867 -1613.18088135 1214.67838867 -1612.34521484 1213.33007812 C-1598.2774633 1190.71617816 -1583.35728684 1168.51702962 -1567.5390625 1147.08789062 C-1565.88244749 1144.84052838 -1564.23765824 1142.58479633 -1562.59375 1140.328125 C-1551.4462821 1125.06188286 -1539.85716813 1110.17467856 -1527.890625 1095.54296875 C-1525.52682797 1092.65243946 -1523.19382183 1089.7393056 -1520.875 1086.8125 C-1517.38115893 1082.42864889 -1513.76928098 1078.15247864 -1510.1340332 1073.88598633 C-1507.2231921 1070.46498229 -1504.37622606 1067.00186558 -1501.5625 1063.5 C-1497.18899497 1058.12145252 -1492.51181721 1053.06547069 -1487.78515625 1048 C-1485.02028676 1045.03453651 -1482.34278992 1042.00129607 -1479.6875 1038.9375 C-1472.86712526 1031.10669938 -1465.80805204 1023.48543589 -1458.74163818 1015.8770752 C-1457.63133365 1014.68042877 -1456.5223459 1013.48255826 -1455.4151001 1012.28308105 C-1443.14567316 999.00439102 -1430.38238411 986.22729047 -1417.58837891 973.45800781 C-1414.57513259 970.45051687 -1411.56648129 967.43847495 -1408.55908203 964.42513847 C-1406.20843838 962.07086534 -1403.85539895 959.7189983 -1401.50164795 957.36783218 C-1400.39108226 956.25792611 -1399.28123807 955.14729757 -1398.17218018 954.03588486 C-1392.7840889 948.6388404 -1387.39036707 943.29992708 -1381.57580566 938.35562134 C-1379.43446097 936.51348266 -1377.46602397 934.52651701 -1375.5 932.5 C-1372.23275625 929.19392653 -1368.87984369 926.09254539 -1365.3515625 923.0703125 C-1362.85551377 920.87279452 -1360.43160111 918.61022251 -1358.00756836 916.33398438 C-1352.35991326 911.03102184 -1346.62796742 905.95632478 -1340.578125 901.109375 C-1337.9757371 898.98014854 -1335.48424498 896.76550643 -1333 894.5 C-1327.82464121 889.79586697 -1322.44990764 885.38102253 -1317 881 C-1315.85542867 880.0742683 -1314.71089931 879.14848471 -1313.56640625 878.22265625 C-1304.93528252 871.26050233 -1296.16889246 864.48922108 -1287.33789062 857.78320312 C-1284.85794207 855.89164671 -1282.38927145 853.98602112 -1279.921875 852.078125 C-1270.79151632 845.03724636 -1261.60293624 838.17164188 -1252.00634766 831.77539062 C-1247.9633352 829.07199209 -1244.01170045 826.28061766 -1240.1118927 823.37329102 C-1230.74011055 816.39775233 -1221.04794609 809.95106516 -1211.27807617 803.54907227 C-1208.46314716 801.70430787 -1205.65216055 799.85366316 -1202.84179688 798.00195312 C-1185.44671765 786.55799184 -1167.94888612 775.26681629 -1150.125 764.5 C-1149.54803375 764.15070435 -1148.9710675 763.80140869 -1148.37661743 763.44152832 C-1128.79757732 751.59122272 -1108.97618016 740.16638114 -1089 729 C-1087.89027832 728.37867188 -1086.78055664 727.75734375 -1085.63720703 727.1171875 C-1069.76048887 718.23679802 -1053.74971206 709.66788672 -1037.55859375 701.375 C-1033.03181414 699.05535495 -1028.53635623 696.68915232 -1024.06274414 694.26904297 C-959.32171452 659.41821416 -888.90270056 634.34287928 -819.77798462 609.76911926 C-814.35692724 607.84170103 -808.94021437 605.90255167 -803.52578735 603.95658875 C-769.16087862 591.61321677 -734.52912651 580.2182864 -699.74064636 569.13302612 C-613.58965195 543.21354116 -613.58965195 543.21354116 -531.50292969 506.92651367 C-525.74632416 503.8314746 -519.91635781 501.17552287 -513.875 498.6875 C-495.20095329 490.92235128 -477.52504709 481.15833179 -460.29199219 470.61352539 C-452.96782217 466.13719232 -445.5268196 461.93718344 -438 457.8125 C-423.58572831 449.85522459 -410.53635927 440.66963132 -398 430 C-396.93161488 429.10472201 -395.86257239 428.2102281 -394.79296875 427.31640625 C-388.84083161 422.32891683 -382.98935064 417.2512029 -377.2421875 412.02734375 C-375.28791576 410.26032801 -373.30940263 408.53086471 -371.3125 406.8125 C-361.18875451 397.9592644 -351.52267106 388.61709325 -342 379.125 C-340.81700317 377.9488916 -340.81700317 377.9488916 -339.61010742 376.74902344 C-334.86786159 371.99418 -330.3621381 367.10428392 -326 362 C-325.08773608 360.95529541 -324.17500858 359.91099536 -323.26171875 358.8671875 C-318.43629483 353.25827289 -313.81710283 347.57414402 -309.5 341.5625 C-308.88644653 340.71244385 -308.88644653 340.71244385 -308.26049805 339.84521484 C-305.81119841 336.37345177 -303.80812712 332.84227014 -302 329 C-310.52783679 334.36789726 -318.94625557 339.89388215 -327.35714722 345.44232178 C-401.59834465 394.38898289 -478.61846617 434.46931911 -774.42376709 532.59010315 C-902.54982288 568.67534856 -902.54982288 568.67534856 -1062 629 C-1063.17739746 629.53157715 -1064.35479492 630.0631543 -1065.56787109 630.61083984 C-1091.81736443 642.50188591 -1117.68598293 655.15243228 -1142.61474609 669.62597656 C-1144.74819082 670.85494554 -1146.8927777 672.05704112 -1149.05078125 673.2421875 C-1197.1196126 699.64262144 -1242.44631242 732.40253413 -1284.16967773 767.92138672 C-1287.52815914 770.77567368 -1290.93245866 773.55948845 -1294.375 776.3125 C-1299.73380489 780.65620088 -1304.73163228 785.34687571 -1309.69873047 790.12817383 C-1313.27105945 793.53237631 -1316.80382902 796.39747435 -1321 799 C-1323.33416052 786.25330484 -1323.208489 773.05081705 -1323.1875 760.125 C-1323.18656342 759.36754486 -1323.18562683 758.61008972 -1323.18466187 757.8296814 C-1322.95167161 670.01990175 -1291.66084066 585.261015 -1238 516 C-1237.58572754 515.46101074 -1237.17145508 514.92202148 -1236.74462891 514.36669922 C-1231.66559984 507.76452556 -1226.46957088 501.27448345 -1221.0625 494.9375 C-1220.41897583 494.18073975 -1220.41897583 494.18073975 -1219.76245117 493.40869141 C-1210.49088965 482.6524079 -1200.6260698 472.46046632 -1190.57128906 462.44091797 C-1188.7338424 460.60889005 -1186.9018835 458.77149395 -1185.0703125 456.93359375 C-1179.21653409 451.07616209 -1173.34252232 445.3331552 -1167 440 C-1165.88147405 439.02757908 -1164.7642593 438.05364765 -1163.6484375 437.078125 C-1155.62421798 430.12751746 -1147.42373156 423.45963727 -1139 417 C-1138.40558105 416.54189941 -1137.81116211 416.08379883 -1137.19873047 415.61181641 C-1118.56228065 401.2871928 -1099.20312208 388.01418895 -1079 376 C-1078.00661621 375.40864258 -1077.01323242 374.81728516 -1075.98974609 374.20800781 C-1059.63763889 364.52258772 -1042.9844462 355.52439061 -1026 347 C-1024.93265625 346.46165527 -1023.8653125 345.92331055 -1022.765625 345.36865234 C-993.09271169 330.48243928 -962.37495757 318.24471961 -930.93426514 307.65515137 C-929.12166122 307.04120765 -927.31287577 306.41602265 -925.50439453 305.79003906 C-897.41379823 296.06968379 -868.54290184 288.71596171 -839.84472656 281.02984619 C-837.37247706 280.3676309 -834.90045283 279.70457374 -832.42871094 279.04046631 C-762.60140367 260.28273421 -691.64450222 243.2328725 -620.11230469 232.35327148 C-611.19823735 230.96284605 -602.70985499 228.87665009 -594.0605011 226.31123352 C-585.26968307 223.72496014 -576.39445303 221.75588105 -567.42944336 219.87734985 C-564.27623314 219.21618561 -561.12529463 218.54491601 -557.97460938 217.87182617 C-548.77556657 215.90931977 -539.57260632 213.96536211 -530.3694458 212.02227783 C-450.92111327 195.24685573 -371.72719771 177.70076766 -294 154 C-293.12617676 153.73378845 -292.25235352 153.4675769 -291.35205078 153.19329834 C-252.57353392 141.35281886 -214.20248729 128.17569753 -177 112 C-175.84145508 111.49968262 -174.68291016 110.99936523 -173.48925781 110.48388672 C-146.4003573 98.73747056 -119.87361167 85.88441544 -94.60449219 70.57568359 C-92.154166 69.09326841 -89.69264203 67.63179012 -87.2265625 66.17578125 C-62.6936567 51.58443527 -38.70076799 34.31410476 -18.76171875 13.76953125 C-15.66856978 10.66266544 -12.33341337 7.8434085 -9 5 C-8.14341797 4.23429687 -8.14341797 4.23429687 -7.26953125 3.453125 C-3.34111657 0 -3.34111657 0 0 0 Z " fill="#81B55E" transform="translate(1794,53)"/>
<path d="M0 0 C2.27850276 0.71609726 4.55838852 1.42768033 6.83831787 2.13922119 C43.84310109 13.72398114 80.38866505 26.81287876 116.20013428 41.69146729 C117.35787354 42.17003174 118.51561279 42.64859619 119.70843506 43.1416626 C198.33043852 75.77474669 198.33043852 75.77474669 205.20013428 90.69146729 C187.51363265 96.45732432 169.63681895 101.58983576 151.77994537 106.79584885 C147.30548222 108.1008064 142.83168608 109.40804651 138.35784912 110.71514893 C132.75310046 112.35254237 127.14829818 113.98975103 121.54321289 115.62599182 C107.93056972 119.59998967 94.32057022 123.58295383 80.71185303 127.57037354 C78.80273256 128.12967019 76.89360885 128.68895576 74.98448181 129.24822998 C63.92647725 132.48768382 63.92647725 132.48768382 52.86880493 135.72827148 C48.58883449 136.98277483 44.30864175 138.23651697 40.02828407 139.48969841 C38.4564215 139.95005051 36.88464102 140.41068305 35.31294823 140.87161446 C33.16894647 141.50035802 31.02466432 142.12813616 28.88031006 142.75567627 C27.67980011 143.10742416 26.47929016 143.45917206 25.24240112 143.82157898 C20.96829105 145.04369346 17.19332781 145.83943812 12.74700928 146.08599854 C11.65001709 146.15496338 10.5530249 146.22392822 9.42279053 146.29498291 C7.1862212 146.4295796 4.94924755 146.55769402 2.71185303 146.67779541 C-21.32586448 148.2370733 -44.53294392 154.3491315 -67.79986572 160.19146729 C-102.16426917 168.82038631 -102.16426917 168.82038631 -116.36236572 171.22271729 C-117.28879883 171.38098999 -118.21523193 171.5392627 -119.16973877 171.70233154 C-130.4891722 173.47699293 -141.40760647 172.4049357 -152.72955322 171.13287354 C-153.50135799 171.04724215 -154.27316277 170.96161076 -155.06835556 170.87338448 C-174.54894699 168.68579119 -193.84247236 165.40516563 -213.15905762 162.10180664 C-221.41475718 160.69042179 -229.67239101 159.29059768 -237.93267822 157.90631104 C-239.24841324 157.68579449 -239.24841324 157.68579449 -240.59072876 157.46082306 C-254.95106134 155.06508082 -269.30045522 153.06115423 -283.79986572 151.69146729 C-284.50443909 151.62285492 -285.20901245 151.55424255 -285.93493652 151.48355103 C-289.80333198 151.1126149 -293.67175704 150.81420516 -297.54986572 150.56646729 C-298.74772705 150.48936523 -299.94558838 150.41226318 -301.17974854 150.33282471 C-378.81674433 145.76849425 -456.60244676 151.40023169 -782.53179932 294.21685791 C-785.03355764 296.46984298 -787.50081085 298.75500109 -789.95611572 301.05865479 C-792.10074301 303.04420258 -794.2668168 304.95789747 -796.48345947 306.85943604 C-801.67414739 311.38213696 -806.50659217 316.25239813 -811.36236572 321.12896729 C-812.26922119 322.03195557 -813.17607666 322.93494385 -814.1104126 323.86529541 C-819.21701924 328.9793083 -824.11264073 334.19229372 -828.79986572 339.69146729 C-829.76068469 340.78646546 -830.72287118 341.88026556 -831.68658447 342.97271729 C-839.183073 351.55523218 -846.08745069 360.48660026 -852.79986572 369.69146729 C-853.23540771 370.2842749 -853.67094971 370.87708252 -854.11968994 371.487854 C-865.33767203 386.77726058 -875.24611976 402.75064458 -884.47320557 419.31256104 C-885.6099748 421.35096359 -886.75974318 423.38121637 -887.91314697 425.41021729 C-919.97444359 483.29313788 -931.45163539 548.27853961 -936.98736572 613.37896729 C-937.06627045 614.27513763 -937.14517517 615.17130798 -937.22647095 616.09463501 C-940.76214293 656.91949237 -941.12587227 697.96024404 -940.99710083 738.90851212 C-940.98717866 742.44565259 -940.98147209 745.98277649 -940.97711182 749.51992798 C-940.93839988 780.85524566 -940.67366126 812.17032943 -939.97151184 843.49804688 C-939.76737907 852.77526942 -939.62160608 862.05208384 -939.56768799 871.33145142 C-939.55613692 872.98256147 -939.53937303 874.63364656 -939.51641846 876.28463745 C-939.21405944 898.7005711 -946.77059017 913.14520286 -962.13873291 929.12313843 C-968.21464748 935.31280306 -974.37628665 941.41645037 -980.54388428 947.51452637 C-984.5244358 951.45135861 -988.49784324 955.39537066 -992.46804047 959.34264183 C-993.83637289 960.70093601 -995.20835323 962.05555223 -996.58044434 963.41004944 C-1001.0082186 967.80359704 -1005.29136581 972.25181277 -1009.34658813 976.99293518 C-1011.55850414 979.5781332 -1013.86800132 982.0656323 -1016.17486572 984.56646729 C-1019.57108707 988.25618924 -1022.95102899 991.95853458 -1026.29986572 995.69146729 C-1029.64871766 999.42441694 -1033.02959575 1003.12585612 -1036.42486572 1006.81646729 C-1040.02713012 1010.73465484 -1043.58117308 1014.68744126 -1047.06549072 1018.71099854 C-1049.07251111 1021.00279884 -1051.12389424 1023.25143481 -1053.17486572 1025.50396729 C-1057.05337299 1029.80106556 -1060.7285254 1034.22905483 -1064.36627197 1038.73052979 C-1066.55147134 1041.38924748 -1068.78400353 1043.99213168 -1071.04449463 1046.58624268 C-1077.76541995 1054.3110558 -1083.99973133 1062.34585896 -1090.15875244 1070.52252197 C-1091.77876961 1072.66358602 -1093.41317754 1074.79270306 -1095.05377197 1076.91802979 C-1107.0904069 1092.51711745 -1118.46471464 1108.55212729 -1129.67877197 1124.75006104 C-1132.42150894 1128.71135778 -1135.17969363 1132.66111444 -1137.95220947 1136.60162354 C-1145.72357667 1147.66314607 -1153.23759248 1158.82206054 -1160.33892822 1170.32574463 C-1161.82961735 1172.73964463 -1163.32948669 1175.14764103 -1164.83111572 1177.55474854 C-1194.36848619 1224.8058442 -1194.36848619 1224.8058442 -1220.22003174 1274.11334229 C-1240.27385683 1316.26386198 -1240.27385683 1316.26386198 -1250.79986572 1331.69146729 C-1251.45986572 1332.68146729 -1252.11986572 1333.67146729 -1252.79986572 1334.69146729 C-1253.45986572 1334.69146729 -1254.11986572 1334.69146729 -1254.79986572 1334.69146729 C-1254.8341789 1269.29355113 -1254.86597312 1203.89563392 -1254.884552 1138.49771118 C-1254.88496617 1137.04355913 -1254.88496617 1137.04355913 -1254.88538871 1135.56003027 C-1254.8913759 1114.4866002 -1254.89691607 1093.41317003 -1254.90199638 1072.33973972 C-1254.90449084 1062.00385722 -1254.90708398 1051.66797475 -1254.909729 1041.33209229 C-1254.90999052 1040.30360179 -1254.91025204 1039.2751113 -1254.91052148 1038.21545443 C-1254.91902916 1004.93835298 -1254.9340405 971.66125836 -1254.95246016 938.38416104 C-1254.97136976 904.15941834 -1254.98364688 869.93467942 -1254.9876957 835.70993158 C-1254.98827193 830.86497447 -1254.9889232 826.02001737 -1254.98962021 821.17506027 C-1254.98975505 820.22159567 -1254.9898899 819.26813107 -1254.99002883 818.28577361 C-1254.9923832 802.99858754 -1255.00163466 787.71141323 -1255.01352979 772.42423194 C-1255.0253676 757.01854837 -1255.02978596 741.61287633 -1255.02686848 726.20718838 C-1255.02549048 717.87506736 -1255.02726388 709.5429778 -1255.03827667 701.21086311 C-1255.12054382 636.50868928 -1255.12054382 636.50868928 -1252.79986572 609.69146729 C-1252.72019601 608.72634539 -1252.6405263 607.76122349 -1252.55844235 606.76685548 C-1252.13065201 601.60666279 -1251.6352892 596.46113252 -1251.04986572 591.31646729 C-1250.96683197 590.57073456 -1250.88379822 589.82500183 -1250.79824829 589.05667114 C-1241.43471817 505.69227359 -1215.12611149 423.65804953 -1171.79986572 351.69146729 C-1170.85385498 350.11292969 -1170.85385498 350.11292969 -1169.88873291 348.50250244 C-1156.26359537 325.82936843 -1141.5008578 303.97570985 -1125.79986572 282.69146729 C-1125.3018042 282.01325928 -1124.80374268 281.33505127 -1124.29058838 280.6362915 C-1116.76313187 270.40315839 -1108.92158935 260.45911328 -1100.79986572 250.69146729 C-1100.31050537 250.10156006 -1099.82114502 249.51165283 -1099.31695557 248.90386963 C-1085.84815689 232.73675324 -1071.69067049 217.31631583 -1054.83746338 204.63775635 C-1049.48590012 200.56082387 -1044.61008449 196.03522805 -1039.71392822 191.42974854 C-1036.15486591 188.08537496 -1032.50396725 184.87302591 -1028.79986572 181.69146729 C-1027.80986572 180.83424072 -1026.81986572 179.97701416 -1025.79986572 179.09381104 C-1011.0276337 166.33079187 -995.96859447 154.06962447 -980.24468994 142.49224854 C-978.66557763 141.32912367 -977.08889776 140.16268582 -975.51519775 138.99224854 C-957.84773449 125.85380378 -939.16508426 114.3813959 -920.2456665 103.15045166 C-917.81755091 101.70201696 -915.39920399 100.23855323 -912.98345947 98.76959229 C-885.26624933 81.94058853 -856.8480818 66.71345841 -827.33013916 53.29693604 C-825.04999193 52.25998941 -822.77184325 51.21863165 -820.49615479 50.17193604 C-790.0076091 36.15293838 -758.55312479 24.49575444 -726.79986572 13.69146729 C-725.64244873 13.29653076 -724.48503174 12.90159424 -723.2925415 12.49468994 C-634.31418142 -17.60802558 -540.52410582 -34.47758903 -398.79986572 -45.30853271 C-397.64953857 -45.36637939 -396.49921143 -45.42422607 -395.31402588 -45.48382568 C-294.12177735 -50.47165481 -191.60842938 -42.24238041 0 0 Z " fill="#336EA2" transform="translate(1280.7998657226563,46.30853271484375)"/>
<path d="M0 0 C12.60329325 8.6071271 17.0775129 26.34065515 22 40 C22.22921143 40.6358905 22.45842285 41.27178101 22.69458008 41.92694092 C47.61234487 111.32406043 58.90005277 184.59217722 -1.45092773 484.57324219 C-3.9174799 489.74048466 -6.44491003 494.87603507 -9 500 C-9.77512939 501.55630127 -9.77512939 501.55630127 -10.56591797 503.14404297 C-24.44488596 530.82935893 -40.76287401 556.72538408 -60 581 C-60.66128906 581.84304688 -61.32257813 582.68609375 -62.00390625 583.5546875 C-69.65819644 593.23465853 -77.66657372 602.61751235 -85.96484375 611.75 C-87.77377543 613.74989375 -89.54891801 615.77269432 -91.3125 617.8125 C-98.29429721 625.81721169 -105.51086055 633.61834255 -113.09155273 641.05859375 C-114.83253875 642.82964669 -116.44036917 644.6473689 -118.04296875 646.54296875 C-123.20028505 652.47740553 -128.86221796 657.92045752 -134.45703125 663.43652344 C-139.59406064 668.50778223 -144.62420094 673.60437424 -149.31933594 679.09228516 C-152.42418315 682.61658442 -155.78470806 685.88825135 -159.125 689.1875 C-160.15947266 690.21520508 -160.15947266 690.21520508 -161.21484375 691.26367188 C-162.54984393 692.58973802 -163.88660374 693.91403567 -165.2253418 695.23632812 C-166.69595323 696.69783549 -168.14572074 698.18028246 -169.58984375 699.66796875 C-172.3826409 702.37023763 -175.36324173 704.75758725 -178.4375 707.125 C-179.68883257 708.09891917 -180.94013379 709.07287861 -182.19140625 710.046875 C-182.82578613 710.53865234 -183.46016602 711.03042969 -184.11376953 711.53710938 C-187.041176 713.80749762 -189.9594029 716.08947544 -192.875 718.375 C-193.44734375 718.82238525 -194.0196875 719.26977051 -194.609375 719.73071289 C-197.74405384 722.1907581 -200.84368652 724.68579041 -203.91015625 727.23046875 C-214.01363852 735.60551321 -224.45135788 742.90330428 -235.56640625 749.86328125 C-237.16928168 750.86717017 -238.7721461 751.8710767 -240.375 752.875 C-241.1798584 753.37781494 -241.9847168 753.88062988 -242.81396484 754.39868164 C-248.15577385 757.76130805 -253.32165709 761.30462114 -258.4375 765 C-266.86084766 771.0616429 -275.66515748 776.36959848 -284.62011719 781.60351562 C-286.80010875 782.88270641 -288.96851653 784.1788599 -291.1328125 785.484375 C-360.73876761 827.31450764 -437.48385029 858.61533624 -820.1875 934.1875 C-821.32720245 934.26631409 -822.46690491 934.34512817 -823.6411438 934.42633057 C-832.75621738 935.04829777 -841.87516995 935.54965363 -851 936 C-851.86521523 936.04340263 -852.73043045 936.08680527 -853.62186432 936.13152313 C-896.04146472 938.23870605 -938.43653959 938.32099967 -980.8969385 938.26114684 C-987.68989956 938.25159261 -994.48285077 938.24699305 -1001.27581787 938.24462891 C-1054.22765641 938.22265967 -1107.15792956 937.80404734 -1160.1008606 936.85760498 C-1168.11272737 936.71481614 -1176.12465052 936.5763016 -1184.13671875 936.4453125 C-1184.79982882 936.43446672 -1185.46293889 936.42362094 -1186.1461432 936.4124465 C-1224.74063282 935.78738832 -1263.33899293 935.83561792 -1301.9375 935.875 C-1302.78952909 935.87584846 -1303.64155817 935.87669693 -1304.51940632 935.87757111 C-1326.01298404 935.89941175 -1347.50649595 935.93938995 -1369 936 C-1368.37675562 933.46474023 -1367.75079265 930.93020246 -1367.12329102 928.39599609 C-1366.86191219 927.33094093 -1366.86191219 927.33094093 -1366.59525299 926.24436951 C-1365.0262738 919.92330388 -1363.09780478 913.76965907 -1360.9375 907.625 C-1360.55174805 906.52341553 -1360.16599609 905.42183105 -1359.76855469 904.28686523 C-1349.05588021 874.22522274 -1335.09131642 845.52322999 -1319 818 C-1318.12688128 816.48739621 -1317.25444319 814.97439925 -1316.3828125 813.4609375 C-1307.47008155 798.05819974 -1297.81976958 783.12356938 -1288.02093506 768.27377319 C-1287.14134301 766.93880394 -1286.26436928 765.60210534 -1285.39019775 764.26358032 C-1277.35928598 751.98262945 -1270.47205096 742.55723478 -1255.52205849 739.396698 C-1251.05624804 738.69426462 -1246.63401608 738.77953954 -1242.1237793 738.84765625 C-1240.46227986 738.86011131 -1240.46227986 738.86011131 -1238.76721478 738.87281799 C-1235.56057554 738.89922736 -1232.35419573 738.93543955 -1229.14769697 738.97501373 C-1225.28991718 739.01989507 -1221.43201593 739.05151591 -1217.5741272 739.08544922 C-1207.40335162 739.17773821 -1197.23283126 739.29044461 -1187.06227326 739.40385818 C-1181.86417779 739.46133048 -1176.66605929 739.51663105 -1171.46794128 739.57202148 C-1153.85774314 739.76002151 -1136.24757589 739.9507482 -1118.63745117 740.14550781 C-1057.35344765 740.84672704 -1057.35344765 740.84672704 -996.06640625 741.0859375 C-994.85114573 741.08585693 -993.6358852 741.08577637 -992.3837986 741.08569336 C-891.22389758 741.03668933 -789.41419921 737.23021168 -605.91357422 693.63415527 C-604.08839252 693.02929313 -602.26104362 692.43098224 -600.43359375 691.83300781 C-568.95449701 681.50107948 -538.44358775 668.16652154 -509 653 C-508.13020508 652.55543457 -507.26041016 652.11086914 -506.36425781 651.65283203 C-481.96217303 639.23518905 -481.96217303 639.23518905 -459.5078125 623.69921875 C-455.32474914 620.41147341 -450.90964362 617.47250658 -446.5 614.5 C-441.03702932 610.81038047 -435.68409906 607.07322069 -430.5 603 C-425.3158406 598.9267319 -419.96249216 595.19040978 -414.5 591.5 C-407.71877944 586.91635374 -401.13819245 582.18451949 -394.7109375 577.1171875 C-392.49525213 575.38678192 -390.24949758 573.7823065 -387.9375 572.1875 C-383.54991881 568.94087544 -380.0622851 564.85062704 -376.42382812 560.8137207 C-373.15772835 557.20232688 -369.79497017 553.934501 -366.0625 550.80078125 C-358.81961087 544.47697085 -352.14149069 537.3867142 -346 530 C-345.55462891 529.46842285 -345.10925781 528.9368457 -344.65039062 528.38916016 C-335.92466056 517.9448112 -327.82518913 507.13153694 -320 496 C-319.52320801 495.32469238 -319.04641602 494.64938477 -318.55517578 493.95361328 C-294.38498707 459.63143771 -276.54747573 424.04668887 -264.03613281 383.90771484 C-263.42421428 381.950151 -262.80666754 379.99433549 -262.18286133 378.04052734 C-261.62651019 376.29672157 -261.08333627 374.54862088 -260.55737305 372.79541016 C-257.75651646 364.02318879 -252.41733898 357.96599288 -245.625 351.9375 C-245.05338135 351.42002197 -244.4817627 350.90254395 -243.89282227 350.36938477 C-240.32800505 347.15171465 -236.72235304 343.98085073 -233.08984375 340.83984375 C-229.37731005 337.57142623 -225.75783475 334.20017341 -222.125 330.84375 C-219.88067205 328.78380849 -217.59818033 326.77475149 -215.29638672 324.77929688 C-211.16148687 321.16502167 -207.12911687 317.45398476 -203.1328125 313.6875 C-202.40490509 313.00163818 -201.67699768 312.31577637 -200.92703247 311.60913086 C-193.2036325 304.29670912 -185.65820281 296.80968699 -178.1484375 289.27880859 C-175.84490873 286.96983764 -173.53596864 284.66637223 -171.2265625 282.36328125 C-169.73144953 280.86750859 -168.23664619 279.37142636 -166.7421875 277.875 C-165.72800247 276.86385132 -165.72800247 276.86385132 -164.69332886 275.83227539 C-160.82982384 271.94989871 -157.14279064 267.96494136 -153.57263184 263.81074524 C-151.00778694 260.85755519 -148.30868702 258.03224111 -145.625 255.1875 C-140.89803624 250.14089056 -136.42490857 244.96665852 -132.1015625 239.56640625 C-130.01998573 237.02440637 -127.8496162 234.60470665 -125.625 232.1875 C-120.62267957 226.68408357 -116.0785391 220.85825218 -111.53613281 214.97753906 C-109.92988663 212.90973963 -108.30652132 210.85632137 -106.6796875 208.8046875 C-98.00805677 197.83204537 -89.88307981 186.55009008 -82 175 C-81.42781738 174.16629883 -80.85563477 173.33259766 -80.26611328 172.47363281 C-45.63704337 121.89272336 -17.3259737 66.27244802 -2.45703125 6.56884766 C-1.09170828 1.09170828 -1.09170828 1.09170828 0 0 Z " fill="#336EA2" transform="translate(1835,445)"/>
<path d="M0 0 C-4.27107498 11.59661569 -28.65704709 19.99931613 -39 25 C-44.31551767 27.45226593 -49.66621481 29.82317079 -55.0229187 32.18386841 C-64.34235496 36.29432634 -73.52060003 40.61995798 -82.625 45.1875 C-84.22057739 45.98776611 -84.22057739 45.98776611 -85.84838867 46.80419922 C-92.2279444 50.03083196 -98.55848064 53.34314005 -104.87890625 56.68359375 C-112.01006289 60.45119862 -119.17369587 64.14984515 -126.36328125 67.8046875 C-127.82667938 68.54888695 -127.82667938 68.54888695 -129.31964111 69.30812073 C-133.31310602 71.33772011 -137.30732696 73.3658086 -141.3034668 75.39013672 C-153.10713989 81.37262188 -164.82192407 87.47770539 -176.41952515 93.85142517 C-183.36720621 97.6684139 -190.37412975 101.33845915 -197.4375 104.9375 C-207.04198846 109.87199192 -216.48831905 115.02292312 -225.85913086 120.38647461 C-231.68105788 123.71234634 -237.54832013 126.91280525 -243.5 130 C-254.49422722 135.71690537 -265.24638834 141.84524403 -276 148 C-277.01449219 148.57878906 -278.02898438 149.15757812 -279.07421875 149.75390625 C-303.47805659 163.68583375 -327.64179027 178.00473104 -351.25878906 193.23730469 C-354.15295062 195.09835264 -357.05592106 196.94500858 -359.9609375 198.7890625 C-374.41780246 207.97747715 -388.70324759 217.3986021 -402.92749023 226.94140625 C-405.96601351 228.97722892 -409.00973155 231.00506447 -412.0546875 233.03125 C-434.95808615 248.29394156 -457.67046116 263.86699232 -479.93359375 280.05078125 C-483.07811123 282.33656093 -486.23884885 284.59778401 -489.41015625 286.84619141 C-502.18126967 295.90451815 -514.63311783 305.39949196 -527 315 C-527.56428711 315.43666992 -528.12857422 315.87333984 -528.70996094 316.32324219 C-540.02523907 325.08895403 -551.02195696 334.17410741 -561.59765625 343.82421875 C-563.23313916 345.30546099 -564.88776245 346.76577982 -566.55859375 348.20703125 C-571.67649002 352.65500503 -576.03071971 357.22082529 -580.11328125 362.640625 C-583.91907941 367.39984258 -588.24904348 371.06347826 -593.125 374.6875 C-598.43388855 378.69091175 -603.40439834 382.94019368 -608.26953125 387.48046875 C-610.36049146 389.40989555 -612.47452872 391.27348315 -614.63134766 393.12646484 C-619.14691552 397.07258943 -623.39551884 401.2512205 -627.62890625 405.49609375 C-628.8189048 406.68465721 -628.8189048 406.68465721 -630.03294373 407.89723206 C-631.69889081 409.56250283 -633.36359256 411.22902029 -635.02709961 412.89672852 C-637.55536134 415.43034622 -640.08891661 417.95858167 -642.62304688 420.48632812 C-644.2503207 422.11426283 -645.87728425 423.74250775 -647.50390625 425.37109375 C-648.25201065 426.11717392 -649.00011505 426.86325409 -649.77088928 427.63194275 C-653.8456405 431.72467263 -657.75376631 435.9041702 -661.51109314 440.29090881 C-663.56209008 442.64521377 -665.76367722 444.82252782 -668 447 C-670.95183025 449.91626603 -673.80388859 452.84605835 -676.5 456 C-679.9809341 460.07203611 -683.77292135 463.78777253 -687.58203125 467.55078125 C-690.30649918 470.3104604 -692.83547376 473.19180657 -695.35546875 476.13671875 C-697.00398752 478.00451793 -698.72303581 479.75455624 -700.5 481.5 C-704.2118719 485.16270803 -707.61011518 489.03979429 -711 493 C-711.90739364 494.05482382 -712.81495908 495.10949986 -713.72265625 496.1640625 C-716.3071683 499.16964436 -718.88393362 502.18176572 -721.45800781 505.19628906 C-722.92480572 506.91204316 -724.39574033 508.62417093 -725.8671875 510.3359375 C-731.63344385 517.06679035 -737.14755308 523.95312855 -742.49511719 531.02246094 C-744.22674352 533.29795952 -745.97628338 535.55913157 -747.7265625 537.8203125 C-755.90520815 548.41657017 -763.75270737 559.15602836 -771.18652344 570.28710938 C-772.85608808 572.78471335 -774.53399706 575.27654147 -776.21435547 577.76689148 C-798.39621887 610.65782566 -818.23191103 644.57920137 -836.01300049 680.0324707 C-836.95686736 681.91401744 -837.90384728 683.79397138 -838.85107422 685.67382812 C-853.99227801 715.86434426 -866.9301411 747.09793364 -878 779 C-878.2384967 779.68368652 -878.47699341 780.36737305 -878.72271729 781.07177734 C-896.92890521 833.28304698 -910.11417938 886.78234842 -917.75 941.5625 C-917.84509857 942.22520905 -917.94019714 942.88791809 -918.03817749 943.57070923 C-918.81285527 949.03510213 -919.41800751 954.51210825 -920 960 C-920.12800995 961.1435495 -920.2560199 962.287099 -920.38790894 963.46530151 C-923.60710684 993.10602671 -923.29410046 1022.71235026 -923.0894165 1052.49224854 C-923.00967031 1064.18094317 -922.9473507 1075.86968452 -922.91015625 1087.55859375 C-922.9062022 1088.79386307 -922.90224815 1090.02913239 -922.89817429 1091.30183411 C-922.75958435 1150.14705969 -929.82673089 1203.2285077 -972 1247 C-972.95036133 1247.9912085 -972.95036133 1247.9912085 -973.91992188 1249.00244141 C-982.5334184 1257.93986082 -991.24888114 1266.35140101 -1001.25537109 1273.71289062 C-1003.07630801 1275.05629664 -1004.87640701 1276.4247516 -1006.67578125 1277.796875 C-1015.10579858 1284.17100483 -1023.80832593 1289.79333126 -1033 1295 C-1033.62503418 1295.36303223 -1034.25006836 1295.72606445 -1034.89404297 1296.10009766 C-1067.75130038 1315.09713988 -1107.31075509 1325.16078718 -1145 1328 C-1146.52728226 1328.12014717 -1146.52728226 1328.12014717 -1148.0854187 1328.24272156 C-1160.56270094 1329.12703037 -1173.02675401 1329.22252935 -1185.53125 1329.31640625 C-1187.86251147 1329.33702434 -1190.1937696 1329.3580219 -1192.52502441 1329.37937927 C-1198.60753655 1329.43409941 -1204.69007956 1329.48372558 -1210.77264404 1329.53222656 C-1217.00080046 1329.5828114 -1223.22891304 1329.63830275 -1229.45703125 1329.69335938 C-1241.63798323 1329.80032693 -1253.81897357 1329.9019035 -1266 1330 C-1266.05674394 1310.62791729 -1266.05674394 1310.62791729 -1265.703125 1301.3515625 C-1265.66985107 1300.43165024 -1265.63657715 1299.51173798 -1265.60229492 1298.56394958 C-1265.49104162 1295.5840193 -1265.37210962 1292.60450457 -1265.25 1289.625 C-1265.20709839 1288.57698212 -1265.16419678 1287.52896423 -1265.11999512 1286.44918823 C-1261.25256838 1194.26082906 -1248.44425361 1102.52048906 -1148 823 C-1147.49758789 821.9373291 -1146.99517578 820.8746582 -1146.47753906 819.77978516 C-1143.02656721 812.49951435 -1139.52975636 805.24237825 -1136 798 C-1135.21906982 796.39511719 -1135.21906982 796.39511719 -1134.42236328 794.7578125 C-1127.25299331 780.07466378 -1119.63385263 765.74742754 -1111.47851562 751.58984375 C-1109.69764197 748.47037419 -1107.97099278 745.3235312 -1106.24975586 742.17089844 C-1099.89100464 730.54391594 -1092.98864861 719.25683231 -1086 708 C-1085.18088135 706.67838867 -1085.18088135 706.67838867 -1084.34521484 705.33007812 C-1070.2774633 682.71617816 -1055.35728684 660.51702962 -1039.5390625 639.08789062 C-1037.88244749 636.84052838 -1036.23765824 634.58479633 -1034.59375 632.328125 C-1023.4462821 617.06188286 -1011.85716813 602.17467856 -999.890625 587.54296875 C-997.52682797 584.65243946 -995.19382183 581.7393056 -992.875 578.8125 C-989.38115893 574.42864889 -985.76928098 570.15247864 -982.1340332 565.88598633 C-979.2231921 562.46498229 -976.37622606 559.00186558 -973.5625 555.5 C-969.18899497 550.12145252 -964.51181721 545.06547069 -959.78515625 540 C-957.02028676 537.03453651 -954.34278992 534.00129607 -951.6875 530.9375 C-944.86712526 523.10669938 -937.80805204 515.48543589 -930.74163818 507.8770752 C-929.63133365 506.68042877 -928.5223459 505.48255826 -927.4151001 504.28308105 C-915.14567316 491.00439102 -902.38238411 478.22729047 -889.58837891 465.45800781 C-886.57513259 462.45051687 -883.56648129 459.43847495 -880.55908203 456.42513847 C-878.20843838 454.07086534 -875.85539895 451.7189983 -873.50164795 449.36783218 C-872.39108226 448.25792611 -871.28123807 447.14729757 -870.17218018 446.03588486 C-864.7840889 440.6388404 -859.39036707 435.29992708 -853.57580566 430.35562134 C-851.43446097 428.51348266 -849.46602397 426.52651701 -847.5 424.5 C-844.23275625 421.19392653 -840.87984369 418.09254539 -837.3515625 415.0703125 C-834.85551377 412.87279452 -832.43160111 410.61022251 -830.00756836 408.33398438 C-824.35991326 403.03102184 -818.62796742 397.95632478 -812.578125 393.109375 C-809.9757371 390.98014854 -807.48424498 388.76550643 -805 386.5 C-799.82464121 381.79586697 -794.44990764 377.38102253 -789 373 C-787.85542867 372.0742683 -786.71089931 371.14848471 -785.56640625 370.22265625 C-776.93528252 363.26050233 -768.16889246 356.48922108 -759.33789062 349.78320312 C-756.85794207 347.89164671 -754.38927145 345.98602112 -751.921875 344.078125 C-742.79151632 337.03724636 -733.60293624 330.17164188 -724.00634766 323.77539062 C-719.9633352 321.07199209 -716.01170045 318.28061766 -712.1118927 315.37329102 C-702.74011055 308.39775233 -693.04794609 301.95106516 -683.27807617 295.54907227 C-680.46314716 293.70430787 -677.65216055 291.85366316 -674.84179688 290.00195312 C-657.44671765 278.55799184 -639.94888612 267.26681629 -622.125 256.5 C-621.54803375 256.15070435 -620.9710675 255.80140869 -620.37661743 255.44152832 C-600.79757732 243.59122272 -580.97618016 232.16638114 -561 221 C-559.33541748 220.06800781 -559.33541748 220.06800781 -557.63720703 219.1171875 C-541.76048887 210.23679802 -525.74971206 201.66788672 -509.55859375 193.375 C-505.03181414 191.05535495 -500.53635623 188.68915232 -496.06274414 186.26904297 C-431.32171452 151.41821416 -360.90270056 126.34287928 -291.77798462 101.76911926 C-286.35692724 99.84170103 -280.94021437 97.90255167 -275.52578735 95.95658875 C-241.16087862 83.61321677 -206.52912651 72.2182864 -171.74064636 61.13302612 C-87.78505849 36.08968794 -87.78505849 36.08968794 -7.67163086 1.11694336 C-4.87635016 -0.05169497 -2.99477986 -0.23041989 0 0 Z " fill="#336FA2" transform="translate(1266,561)"/>
<path d="M0 0 C0.66 0.33 1.32 0.66 2 1 C-5.92 8.92 -13.84 16.84 -22 25 C-22.66 24.67 -23.32 24.34 -24 24 C-16.32908807 15.59591248 -8.68092794 7.38078896 0 0 Z " fill="#86AAC8" transform="translate(218,257)"/>
<path d="M0 0 C0.66 0.33 1.32 0.66 2 1 C-4.27 7.27 -10.54 13.54 -17 20 C-17 15.07226315 -13.31928376 12.4002419 -10 9 C-7.93809524 7.09727281 -5.84231852 5.25578971 -3.69921875 3.4453125 C-1.90381734 1.95747294 -1.90381734 1.95747294 0 0 Z " fill="#8EAFCC" transform="translate(1596,791)"/>
<path d="M0 0 C-1.04874998 2.62187494 -1.64931313 3.79371361 -4.125 5.25 C-4.74375 5.4975 -5.3625 5.745 -6 6 C-6.99 5.34 -7.98 4.68 -9 4 C-2.25 0 -2.25 0 0 0 Z " fill="#8FB3B4" transform="translate(1272,556)"/>
</svg>
